<?xml version="1.0" encoding="UTF-8"?><svg id="Capa_1" xmlns="http://www.w3.org/2000/svg" viewBox="0 0 868.91 686.01"><defs><style>.cls-1{fill:#152133;}</style></defs><path class="cls-1" d="M227.37,442.64c6.81-4.18,14.52-6.81,22.49-6.68,1.25-1.21-3.35-1.28-4.88-1.31-7.66-.12-15.38,3.12-21.88,7-22.91-4.97-47.8-1.09-69.38,6.23-25.28,9.09-48.21,24.04-67.52,42.43-15.89,15.99-31.65,42.4-24.04,64.59,3.8,11.1,15.05,16.8,26.4,16.68,12.57-.41,24.32-6.35,33.05-15.09,7.16-6.93,15.31-17.84,13.65-28.59-.82-5.84-5.04-10.2-11.17-10.91-5.51-.4-10.76,1.97-15.1,4.97-1.56,1.51-.34,2.14,1.52.94,4.64-2.68,10.5-5.04,15.99-3.42,8.54,2.9,8.05,13.93,4.88,20.62-6.67,14.3-21.27,26.32-37.54,27.59-10.75,1.05-22.92-4.05-24.26-16.34-1.03-11.97,2.85-24.48,8.54-35.11,12.33-23.1,31.95-42.09,54.85-54.89,25.99-14.6,56.17-23.61,85.8-16.69-31.64,23.09-50.31,58.65-70.77,91.11-14.48,23.67-26.85,48.61-40.73,72.6-12.3,21.26-27.36,42.47-51.1,50.97-11.72,4.41-26.13,4.79-36.43-2.74-8.48-6.58-10.76-17.04-7.84-26.49,3.24-10.68,13.09-13.27,15.46-8.33.59,1.24-.09,5.21-1.62,5.49,5.22-.22,8.68-5.68,9.36-9.96.69-4.89-2.92-8.63-7.84-7.79-5.53.83-14.85,8.65-17.83,22.09-2,10.08.89,20.55,9.37,27.13,10.29,8.14,24.69,8.68,37,5.51,24-5.74,42.38-23.83,56.79-42.91,16.3-21.8,30.79-45.48,43.75-69.79,19.9-36.15,36.51-76.96,67.02-105.89,11.9,3.57,23.73,11.12,28.75,22.54,11.75,31.15-9.25,59.93-31.61,77.65-9.63,7.51-20.76,13.76-32.78,17.55-8.33,2.93-17.55,4.92-26.4,2.02-6.09-2.55-5.54,1.14,1.18,2.78,9.16,1.99,18.39.3,27.01-2.32,12.32-3.48,24.05-8.8,35.2-15.67,21.05-12.53,43.16-33.93,43.28-60.29.39-23.9-20.17-41.71-40.61-47.26Z"/><path class="cls-1" d="M380.26,475.75c-2.44.69-2.79,2.43-4.19,4.17-7.68,9.05-19.53,12.86-29.99,15.63-1.04,0-.7,1.74.35,1.74,8.71-1.03,18.12-2.76,26.49-5.88,4.19-1.74,17.43-7.64,12.22-13.92-1.04-1.4-3.13-2.1-4.87-1.75Z"/><path class="cls-1" d="M590.32,481.32c-2.44,4.18-1.06,9.41,2.42,11.15,3.83,1.75,8.36.01,10.46-4.16,2.1-4.53,1.06-9.06-2.77-11.15-3.48-1.75-8.36.34-10.11,4.17Z"/><path class="cls-1" d="M848.53,547.85c-8.03,10.44-14.95,19.56-24.72,30.35-6.28,7.66-14.31,13.57-23.37,17.04,3.83-2.08,7.32-4.87,10.11-7.65,18.85-19.83,6.7-47.38-4.77-67.95,3.49-4.18,7.68-8.7,9.43-13.92,1.75-6.27-4.52-8.37-9.05-4.89-5.58,4.87-5.94,13.58-5.26,21.25-4.15,4.82-9.32,11.69-12.47,15.54-.06.04-.13.07-.18.12l-3.84,4.87c-3.84,4.52-7.33,9.05-11.17,13.57-8.38,9.39-17.46,19.14-27.22,27.13-8.37,6.61-19.19,14.26-30.33,12.5-15.32-3.86-7.28-22.66-3.43-32.41,6.27.36,14.29-.33,19.86-1.71,19.17-5.2,29.29-14.59,33.48-20.16,4.54-6.26,5.6-14.28,1.07-19.16-2.78-3.14-6.61-4.89-10.44-5.59-1.74-.35-10.45-1.76-23.7,4.84-12.9,6.6-24.07,17.04-31.41,29.57-1.56,2.67-2.9,5.52-4.02,8.46-2.6,3.02-5.15,5.94-7.51,8.6-4.19,4.17-31.07,36.54-35.93,24.33-2.08-4.88,22.01-37.94,29.02-58.49,1.4-4.88,2.11-11.49-1.37-14.64-11.13-9.77-28.58,5.53-35.21,11.79-4.89,4.87-9.43,10.79-13.61,15.66.35-1.04,4.9-10.44,7.69-16.36,1.4-2.79,3.14-6.27,3.15-7.66,0-4.88-5.21-8.02-9.75-5.94-2.09,1.04-3.84,3.48-5.24,6.26-3.43,5.47-6.53,9.94-9.61,14.05-.08.07-.17.12-.25.22-13.62,17.05-28.63,35.49-43.63,50.8-2.79,2.78-5.23,4.17-9.07,5.56-8.01,1.73-7.66-3.84-5.21-8.72,8.74-17.76,20.26-35.86,29.7-52.91,1.75-2.79,4.2-7.66,4.2-9.4,0-4.88-5.21-8.02-9.75-5.94-2.09,1.04-3.84,3.48-5.24,6.26-3.47,5.54-6.6,10.04-9.72,14.2-.05.03-.09.04-.13.07-6.99,9.4-14.67,18.09-21.99,26.79-9.78,11.13-20.25,22.62-33.5,29.22-6.28,2.78-13.95,5.2-20.56,2.41-6.61-3.15-6.6-10.81-5.2-17.08,2.46-10.45,7.35-20.89,13.29-29.94,7.34-11.84,17.81-25.76,31.76-29.57,5.58-1.38,14.29-.67,15.32,6.64,1.03,5.93-8.04,16.36-13.96,12.52-1.74-1.05-.69-4.18,0-4.88-3.14.34-6.97,4.17-7.33,7.65-.35,3.48,2.08,6.27,5.92,6.28,4.53,0,8.37-3.82,11.16-6.95,5.23-6.61,5.59-10.44,5.94-12.19,2.11-14.28-18.8-13.27-27.16-10.84-19.17,5.54-33.83,20.16-41.87,36.17-.82,1.54-1.57,3.17-2.24,4.87-8.61,10.33-17.5,20.51-26.39,29.58-3.84,3.83-13.25,9.39-16.38,4.5-3.13-4.53,22.01-38.99,29.02-59.19,4.2-15.67-8.33-21.62-20.88-14.67-6.28,3.47-10.81,7.3-15.7,11.82-4.89,4.87-9.78,10.79-13.96,16.01,5.25-12.88,8.4-21.59,4.92-27.17-4.86-7.32-15.33-1.42-20.91,4.5-5.93,6.26-8.03,9.05-11.52,13.22-.47.6-.76,1.11-.91,1.54-13.29,16.62-27.84,34.42-42.4,49.27-2.79,2.78-5.23,4.17-9.07,5.56-8.01,1.73-7.66-3.84-5.21-8.72,8.74-17.76,20.27-35.86,29.7-52.91,1.75-2.78,4.2-7.66,4.2-9.4,0-4.88-5.21-8.02-9.75-5.94-2.09,1.04-3.84,3.48-5.24,6.26-3.46,5.52-6.57,10.01-9.69,14.15-.06.04-.12.07-.18.12-12.22,15.66-33.52,43.5-51.31,56.02-3.14,2.09-8.02,4.87-11.51,3.47-3.48-1.75,1.07-11.15,2.81-13.93,8.04-13.92,17.12-27.85,26.9-40.72,2.1-2.78,4.19-5.92,6.63-8.7,1.75-2.09,2.1-5.22.71-7.66-1.39-2.09-3.83-3.49-6.27-3.49-2.79.34-5.58,1.73-8.01,2.77-6.98,2.43-15.34,3.46-22.65,1.01,2.8-5.22,5.95-11.84,3.86-17.07-1.39-3.14-4.88-2.45-6.97-.36-2.09,2.09-3.49,5.57-3.84,7.66-.7,4.53-.01,8.36,3.47,11.16-2.45,3.83-4.54,6.96-6.63,9.75-1.75,2.44.34,3.48,1.74,1.74,1.75-2.44,4.54-5.92,6.99-10.44,5.92,3.49,12.54,3.85,19.16,5.26-7.33,9.4-13.97,19.84-19.21,30.63-3.84,7.66-13.99,32.73-.75,36.58,5.57,2.1,11.85-2.07,16.39-5.55,16.95-13.45,37.34-40.58,49.93-55.96.02-.02.05-.04.07-.06-7.69,14.97-16.07,30.99-22.02,45.96-1.4,4.53-1.76,10.45,2.07,13.94,4.87,3.84,11.84,1.76,15.68-.67,10.11-6.6,20.94-20.87,30.36-31.31,7.68-9.05,15.71-18.79,23.04-28.19.21-.21.29-.47.3-.74,3.73-4.37,5.52-6.76,9.15-10.05,2.09-2.09,5.93-5.57,9.42-5.56,6.97.01-8.05,22.29-8.75,23.33-9.08,13.92-17.81,27.85-26.55,41.77-1.05,2.09-2.44,3.48-2.45,5.92,0,2.79,1.73,5.23,4.17,6.63,4.53,2.45,8.36-.34,10.81-4.16,7.34-11.49,14.32-21.93,20.96-33.76,6.98-10.09,14.67-20.53,23.39-28.88,5.58-5.57,15-14.26,22.32-12.51,2.79.7,4.18,2.45,3.13,4.88-9.79,21.59-30.39,46.64-30.77,65.11,0,4.18,2.43,8.02,6.26,9.77,4.88,1.75,10.8.02,15.34-3.11,9.76-6.6,19.89-20.18,28.97-30.27.67-.79,1.35-1.61,2.03-2.41-2.53,9.96-2.1,21.02,3.86,29.25,7.65,10.81,22.98,8.05,33.1,2.49,11.51-5.9,21.28-15.65,30-25.04,8.97-9.97,18.61-21.63,26.92-31.97.01-.01.03-.03.05-.04-7.69,14.97-16.07,30.99-22.02,45.96-1.4,4.53-1.76,10.45,2.07,13.94,4.87,3.84,11.84,1.76,15.68-.67,10.11-6.6,20.94-20.87,30.36-31.31,7.58-8.93,15.5-18.54,22.76-27.83,0,0,.01,0,.02-.01l-1.05,2.09c-3.49,6.96-7.34,14.27-10.84,21.24-25.16,48.39-31.94,64.59-57.79,111.58-1.05,2.09-2.45,4.18-2.1,6.62.69,5.58,8,6.63,10.45,2.11,1.4-2.09,2.45-4.18,3.84-6.27,32.15-56.05,31.58-59.71,61.29-114.02,6.98-10.09,14.67-20.53,23.39-28.88,5.58-5.57,15-14.26,22.32-12.51,2.79.7,4.18,2.45,3.13,4.88-3.85,12.89-47.14,64.04-24.51,74.53,6.62,2.45,13.94-1.72,18.83-5.89,10.24-8.35,19.49-18.5,28.18-28.9-2.85,11.71-1.52,23.79,6.67,31.04,9.05,8.03,21.95,4.22,31.36-1,23.56-13.46,39.91-35.52,56.55-56.28.14-.12.28-.25.42-.42,4.19-5.22,8.38-10.44,11.17-14.27,1.71,21.95,8.98,47.05-7.42,65.15-4.19,4.17-10.46,8-16.74,7.29-3.48-.7-6.96-2.8-6.96-7.68.01-6.97,8.03-11.83,12.21-9.39,1.74,1.05.69,4.53,0,5.23,3.14-1.04,6.63-3.82,6.98-8.7.35-3.83-2.08-7.32-6.61-6.28-8.37,1.73-15.35,11.82-14.66,19.84,1.02,13.94,21.59,10.84,27.16,9.45,8.71-2.08,16.74-7.29,23.36-13.2,13.61-12.52,21.23-24.78,31.7-37.31,1.05-1.39-.69-2.79-1.74-1.74ZM274.04,524.71c-3.48-2.79-3.48-7.32-2.07-10.8.35-1.05,3.49-6.61,5.58-4.87,3.48,3.49-1.76,12.89-3.51,15.67ZM735.3,528.23c4.89-4.52,11.51-9.39,18.48-9.03,2.44,0,4.53,1.05,5.57,2.1,6.61,6.98-11.91,37.26-35.26,38.97-3.14.34-6.97.69-10.8.68,5.25-12.19,13.28-22.98,22-32.72ZM805.45,507.44c.7-2.44,3.15-6.62,6.28-5.91,5.57,1.4-6.65,15.32-7,16.02-.69-3.14-.34-6.97.71-10.1Z"/><path class="cls-1" d="M493.72,358.39c6.99-7.97,13.74-16.2,20.26-24.91,6.27-8.48,10.43-13.82,15-23.55,2.28-4.62,4.07-9.25,4.65-14.38.56-4.4.42-10.53-4.21-12.57-4.63-1.55-10.31,1.3-14.03,3.69-7.64,5.03-13.5,11.89-18.75,19.21-4.2,5.87-7.79,12.18-10.9,18.7-11.9,24.89-11.69,28.15-23.02,60.79-2.08,7.32-5.23,20.01-1.13,24.25,3.62,3.74,8.78,2.84,12.98.7,10.24-5.65,18.16-14.17,25.62-23.34-1.76,7.71-1.34,16.6,3.82,22.1,6.75,7.22,18.57,3.24,25.51-1.3,8.43-5.74,15.66-13.71,19.98-22.96,7.84-1.34,16.26-8.75,21.26-14.78.03-.03.05-.04.07-.07,3-3.63,6-7.25,8-9.92.97,15.46,5.83,33.18-5.89,45.74-2.99,2.89-7.44,5.52-11.85,4.95-2.44-.53-4.87-2.04-4.81-5.47.08-4.9,5.77-8.24,8.68-6.48,1.21.76.44,3.19-.06,3.68,2.22-.7,4.7-2.62,5-6.04.29-2.69-1.39-5.17-4.58-4.49-5.9,1.13-10.92,8.16-10.52,13.8.58,9.81,15.07,7.84,19,6.93,6.15-1.37,11.85-4.95,16.57-9.04,9.7-8.67,21.72-24.4,29.22-33.1.02-.02.02-.04.03-.07,7.08-7.28,14.92-13.55,23.73-17.04,8.17-3.29,18.87-3.34,26.72,1.23,6.43,3.82,9.3,12.26,6.41,19.05-3.44,7.96-8.34,8.23-10.2,7.53-1.42-.75-.41-3.99.44-4.52-3.54.36-6.15,3.31-6.39,7.59-.33,3.39,1.96,6.07,5.93,5.44,8.79-1.57,13.87-13.27,13.19-22.16-.72-9.33-7.87-15.76-16.36-17.81-8.93-2-18.55.32-26.38,4.7-13.69,7.36-21.63,17.9-30.99,30.06-4.14,4.83-8.33,9.58-11.56,13.04-4.5,5.32-10.2,9.39-16.61,11.74,2.72-1.43,5.2-3.35,7.19-5.28,13.46-13.75,5.2-33.25-2.65-47.84,2.5-2.9,5.49-6.04,6.78-9.69,1.3-4.39-3.09-5.93-6.32-3.53-3.98,3.37-4.32,9.49-3.92,14.89-2.98,3.36-6.71,8.17-8.96,10.83-.02.02-.04.03-.06.05-4.26,5.57-12.45,12.3-19.35,14.14,1.54-4.14,2.84-8.78,1.19-12.97-1.42-3.21-4.6-3.75-7.56-2.08-3.71,1.9-6.97,6.75-5.82,11.18.46,1.97,1.9,3.46,3.6,4.47-5.28,8-14.83,22.8-23.23,26.83-3.95,1.65-9.34,1.81-11.97-2.4-2.63-4.21-.82-9.82.97-14.2,3.83-9.25,9.38-18.96,16.36-26.45,5.74-6.03,18.63-15.38,25.88-8.89,2.65,2.74,2.84,5.93,2.3,9.11-.01.74.96,1.24,1.22.51,1.54-4.39-.1-9.07-2.03-11.06-3.37-3.49-8.51-4.06-12.93-3.64-15.22,1.22-29.12,12.27-35.47,26.14-.47.99-.91,2.06-1.31,3.18-7.31,9.08-14.72,17.33-24.61,23.12-3.21,1.66-9.39,4.5-11.53.55-1.9-3.46,6.49-21.95,11.05-31.19,5.98-6.37,12.27-11.14,17.34-16.66ZM518.5,291.62c2.25-2.41,8.47-8.69,11.84-4.46,2.4,2.98,1.59,7.87,1.04,11.29-2.13,10.26-8.65,19.47-14.18,27.95-12.05,17.45-37.66,41.84-38.91,43.29,12.29-32.97,14.18-44.67,40.21-78.07ZM581.99,347.61c.52-1.71,2.28-4.62,4.48-4.09,3.9,1.04-4.83,10.71-5.08,11.19-.45-2.21-.16-4.9.61-7.1ZM539.8,378.79c-1.17-3.45,1.36-8.07,4.81-9.23,6.41-2.35-1.42,11.99-1.92,12.71-1.21-.76-2.18-1.75-2.88-3.48Z"/><path class="cls-1" d="M292.96,373.59c-15.02,9.45-32.29,19.47-49.42,19.91-8.81.27-18.86-3.38-24.65-10.38-4.72-5.81-4.5-14.72.55-20.09,5.98-6.28,10.67-4.85,12.17-3.55,1.07,1.19-1,3.88-1.97,4.09,3.45.88,6.92-.99,8.62-4.92,1.48-3.07.25-6.37-3.68-7.15-8.79-1.56-17.6,7.67-20.03,16.25-2.54,9,1.95,17.51,9.21,22.36,7.7,4.96,17.52,6.1,26.38,4.69,17.89-2.54,29.96-11.79,45.97-21.58l10.31-7.8c-6.48,7.52-11.21,17.11-11.88,27.01-.34,5.34.58,11.46,4.84,15.09,4.02,3.12,9.37,2.7,13.72.99,8.71-3.42,14.42-10.45,20.13-17.73-1.63,6.08-4.05,14.18.96,18.84,5.28,3.65,13.82-5.12,17.96-9.37,4.35-4.53,9.22-9.95,13.93-15.35-2.22,8.53-1.39,17.38,4.52,22.77,6.52,5.96,15.97,3.31,22.9-.39,17.46-9.64,26.87-22.37,39.32-37.43.78-1.01-.47-2.04-1.25-1.29l-2.86,3.52c-2.85,3.26-2.64,3.18-5.5,6.44-6.22,6.77-12.94,13.78-20.16,19.51-6.18,4.73-14.16,10.2-22.27,8.79-11.14-2.98-5.07-16.62-2.16-23.69,4.57.33,10.43-.08,14.52-1.04,14.05-3.59,21.54-10.33,24.66-14.35,3.38-4.52,4.24-10.36.99-13.98-2-2.32-4.77-3.64-7.56-4.19-1.27-.28-7.61-1.4-17.35,3.28-9.49,4.68-17.75,12.18-23.24,21.24-1.21,2-2.26,4.15-3.12,6.36-4.55,5.2-9.34,10.47-13.77,15.24-12.41,12.01-15.39,7.64-12.21-.2,9.53-22.99,23.11-44.65,35.17-66.33,15.45-26.97,11.42-19.81,28.63-45.74,2.35-3.52-1.39-8.16-5.25-5.94-1.54.74-2.33,2.51-3.37,3.76-25.52,36.47-27.78,40.15-48.51,79.24.3-2.54.08-5.09-1.15-7.4-2.47-4.62-8.31-5.48-13.15-4.79-5.05.78-10.01,2.99-14.57,5.94l-.15-.08-26.26,19.42ZM395.86,357.71c3.61-3.25,8.5-6.73,13.59-6.39,1.78.03,3.29.82,4.04,1.59,4.75,5.17-9.09,27.07-26.15,28.06-2.29.22-5.09.43-7.89.38,3.96-8.84,9.94-16.63,16.41-23.65ZM339.49,351.45c9.16.15,7.45,11.31,4.82,16.36l-9.71,18.41c-4.96,7.55-11.45,15.58-20.15,19-2.3.73-5.11,1.19-7.64.64-4.56-1.09-5-5.68-4.42-9.48,2.78-14.71,21.6-45.18,37.11-44.93Z"/><path class="cls-1" d="M63.58,220.91c11.22,5.6,22.14,12.38,33.95,16.5,12.1,4.42,24.79,5.29,37.48,2.92,12.39-2.67,23.9-8.28,34.52-15.08,14.89-10.02,26.29-19.49,37.24-31.88-2.58,6.05-4.3,12.39-4.61,18.52-.33,7.06,1.02,15.12,6.73,19.82,5.38,4.03,12.43,3.35,18.14,1,10.75-4.37,18.8-14.12,25.52-23.2-3.35,8.06-7.04,19.15,1.02,23.85,7.39,4.03,15.45-2.03,22.17-8.41,13.43-13.78,15.2-16.91,25.27-29.68,1.01-1.34-.67-2.69-1.68-1.68-10.74,14.12-10.84,14.22-24.26,28-10.74,9.08-18.14,7.07-13.78-3.01,4.36-8.74,9.73-17.14,14.43-24.2,5.37-8.74,11.07-17.81,16.44-26.55,2.01-3.7,2.68-8.4-1.35-11.08-3.36-2.01-7.73-1-9.74,2.36-3.02,4.71-6.04,9.41-9.06,14.45,1-5.04,1.34-10.08-1.02-14.78-3.36-6.04-11.09-7.05-17.47-6.03-13.77,2.36-26.2,11.44-35.26,21.86-2.83,3.4-5.49,7.26-7.82,11.37-18.07,22.45-44.84,41.14-71.89,46.4-12.39,2.37-24.79,1.49-36.89-2.34-11.51-3.24-22.73-7.36-33.95-11.49,24.78-15.95,42.76-38.1,58.1-60.84,26.85-9.46,51.33-26.01,72.86-44.02,19.17-16.24,37.46-35.15,49.54-57.58,5.6-10.04,12.08-26.27,8.83-36.01-3.84-11.51-16.83-14.15-26.86-11.49-23.61,5.92-42.77,28.95-56.63,46.37-26.24,34.25-41.86,71.45-62.49,105.4-28.03,7.1-66.99,5.06-77.93-25.62-8.28-23.9,7.64-51.65,27.4-64.65,9.14-6.2,20.36-8.87,31.28-6.81,11.51,2.35,22.44,9.72,26.28,21.23,1.77,5.61,1.48,11.51-.58,17.12-2.95,7.97-11.21,13.29-16.22,10.64-2.07-1.18,0-5.9.88-6.2-3.84.59-8.56,3.84-9.44,9.45-.59,4.43,2.96,8.26,7.38,7.96,8.85-.3,15.34-10.05,18.58-17.72,2.36-5.61,3.53-12.99,2.35-18.89-2.66-11.8-12.41-20.94-23.04-24.77-11.22-4.42-24.5-3.52-35.41,1.21-21.24,9.46-38.93,31.31-40.69,54.92-.88,12.4,3.26,24.79,12.42,33.34,19.49,19.46,51.66,17.67,75.26,11.75-13.27,20.37-26.83,40.16-47.18,53.15-11.22-3.83-22.73-8.25-34.53-8.24-6.2,0-12.69,1.48-18.29,4.14-3.54,1.77-7.67,4.14-9.14,7.98-2.36,6.2,5.61,8.85,9.75,9.73,18,3.82,38.37-.32,53.41-9.19ZM242.78,165.84c4.7-4.37,11.08-9.08,18.13-9.08,9.07,0,10.76,10.41,9.08,17.46-2.35,7.73-10.4,20.5-14.76,27.56-6.38,10.08-15.1,21.85-26.52,26.56-3.02,1.01-6.72,1.68-10.08,1.02-6.05-1.34-6.72-7.39-6.06-12.43,3.35-19.15,17.11-39.65,30.2-51.08ZM200.69,38.72c7.67-9.45,17.1-19.49,28.61-24.52,10.33-4.43,25.38-2.38,25.98,10.9.6,12.98-6.77,25.39-12.67,35.72-6.78,10.92-14.74,21.26-23.59,30.41-17.69,18.9-38.34,35.15-60.76,48.44-9.44,5.61-19.76,10.93-30.39,15.07,26.24-38.68,44.21-80.89,72.81-116.03ZM8.69,215.34c5.01-2.66,10.62-4.43,16.52-4.73,11.51-.3,23.02,3.53,33.65,8.24-11.21,6.21-23.9,9.76-36.59,10.35-12.39,0-29.81-4.41-13.58-13.86Z"/><path class="cls-1" d="M866.84,182.97c-11.14,14.64-17.07,23.83-31,38.12-11.14,9.42-18.81,7.33-14.29-3.12,4.52-9.06,10.09-17.78,14.96-25.1,5.57-9.06,11.48-18.48,17.05-27.54,2.09-3.83,2.78-8.71-1.4-11.5-3.49-2.09-8.01-1.04-10.1,2.45-3.13,4.88-6.26,9.76-9.4,14.99,1.04-5.23,1.39-10.45-1.06-15.33-3.49-6.27-11.5-7.31-18.12-6.26-14.28,2.45-27.17,11.87-36.57,22.68-5.01,6.03-9.56,13.44-12.64,21.25-5.96,7.03-12.2,14.14-17.99,20.59-16.71,16.74-20.9,10.82-16.72.01,12.52-31.72,30.61-61.7,46.62-91.68,20.53-37.3,26.46-46.73,49.43-82.63,3.13-4.88-2.1-11.15-7.32-8.01-2.09,1.05-3.13,3.49-4.53,5.23-34.11,50.55-48.39,74.97-75.87,129,.35-3.48,0-6.97-1.75-10.1-3.49-6.27-11.5-7.31-18.12-6.26-14.28,2.45-27.86,13.26-37.26,24.07-4.95,5.96-9.11,12.82-11.91,20.13-8.06,9.66-16.35,19.13-24.64,27.64-3.83,3.84-13.23,9.42-16.37,4.54-3.14-4.53,21.92-39.04,28.87-59.26,4.17-15.68-8.38-21.6-20.92-14.62-6.27,3.49-10.8,7.33-15.67,11.86-4.87,4.88-9.75,10.81-13.92,16.04,5.22-12.9,8.35-21.61,4.86-27.18-4.88-7.31-15.33-1.38-20.9,4.55-5.8,6.15-7.92,8.95-11.28,13-.1.06-.19.14-.26.25-5.92,8.02-17.41,17.78-27.16,20.58,2.09-5.93,3.82-12.55,1.38-18.47-2.09-4.53-6.62-5.22-10.8-2.78-5.23,2.79-9.75,9.76-8,16.03.7,2.79,2.79,4.88,5.23,6.27-7.31,11.5-20.53,32.77-32.37,38.7-5.57,2.44-13.24,2.8-17.08-3.12-3.84-5.92-1.4-13.94,1.03-20.21,5.22-13.24,12.87-27.19,22.62-38,8.01-8.72,26.11-22.32,36.58-13.27,3.83,3.83,4.19,8.36,3.49,12.89,0,1.05,1.39,1.74,1.74.7,2.09-6.27-.36-12.89-3.15-15.68-4.88-4.87-12.2-5.57-18.47-4.86-21.6,2.11-41.1,18.15-49.8,38.02-5.57,12.2-7.64,31.71,2.47,42.16,9.76,10.1,26.48,4.16,36.23-2.47,11.84-8.37,21.94-19.88,27.85-33.12,10.97-2.07,22.6-12.57,29.61-21.21.13-.12.27-.26.4-.42,4.18-4.88,5.92-7.32,9.75-10.81,2.09-2.09,5.92-5.58,9.4-5.58,6.97,0-7.99,22.31-8.69,23.35-9.05,13.94-17.75,27.89-26.45,41.83-1.04,2.09-2.44,3.49-2.43,5.93,0,2.79,1.75,5.23,4.19,6.62,4.53,2.44,8.36-.36,10.8-4.19,7.31-11.5,14.27-21.96,20.88-33.81,6.96-10.11,14.62-20.57,23.32-28.94,5.57-5.58,14.97-14.3,22.29-12.56,2.79.69,4.18,2.44,3.14,4.88-9.74,21.61-30.28,46.72-30.61,65.18,0,4.18,2.45,8.01,6.28,9.75,4.88,1.74,10.8,0,15.33-3.15,9.75-6.63,19.84-20.23,28.89-30.34.11-.13.23-.27.34-.4-.93,3.56-1.53,7.2-1.72,10.86-.34,7.32,1.06,15.68,6.99,20.55,5.58,4.18,12.89,3.47,18.82,1.03,11.84-4.89,19.5-14.65,27.16-24.76-2.09,8.36-5.21,19.52,1.76,25.78,7.32,4.87,18.81-7.33,24.38-13.26,5.59-6.03,11.82-13.18,17.88-20.35-1.02,3.65-1.67,7.33-1.86,10.93-.34,7.32,1.06,15.68,6.99,20.55,5.58,4.18,12.89,3.47,18.82,1.03,11.15-4.54,19.5-14.65,26.46-24.06-3.48,8.37-7.3,19.87,1.07,24.74,7.67,4.18,16.03-2.1,22.99-8.73,13.93-14.3,21.6-26.62,32.04-39.87,1.04-1.39-.7-2.79-1.74-1.74ZM540.63,190.67c-1.74-1.04-3.14-2.44-4.19-4.87-1.75-4.88,1.73-11.5,6.61-13.25,9.06-3.49-1.73,17.07-2.42,18.12ZM719.8,201.67c-6.61,10.46-15.31,21.62-27.16,26.5-3.14,1.05-6.97,1.75-10.45,1.05-6.27-1.39-6.97-7.66-6.28-12.89,3.47-20.21,28.52-62.39,49.77-62.41,12.54,0,10.47,15.32,6.99,22.29l-12.87,25.45ZM815.27,200.55c-6.61,10.46-15.66,22.66-27.5,27.55-3.13,1.05-6.97,1.75-10.45,1.05-6.27-1.39-6.98-7.66-6.28-12.89,3.47-19.86,17.74-41.13,31.32-52.99,4.87-4.53,11.49-9.42,18.81-9.42,9.41,0,11.16,10.79,9.42,18.11-2.43,8.02-10.78,21.26-15.31,28.58Z"/><path class="cls-1" d="M356.47,233.43c11.96,4.2,25.55,2.58,37.04-2.17,23.28-9.18,40.25-28.64,54.11-46.3,14.8-18.88,26.25-39.97,38-61.06,6.46,1.34,13.54,1.76,20.34.95-4.8,10.71-9.93,22.66-20.82,28.65-1.57,1.52-.04,2.47,1.83,1.26,11.53-7.52,18.2-19.44,25.18-31.04,3.41-.87,6.51-2.36,9.94-4.46,4.67-3.01,9.37-7.25,12.84-11.82,2.2-2.74,7.25-9.75,2.99-12.9-4.88-3.16-12.38,2.57-16.14,6.21-6.58,6.37-11.02,14.01-14.85,21.96-6.8.81-13.58.39-20.34-.64,20.63-35.81,39.3-77.01,75.58-99.76,13.51,4.32,26.72,9.31,40.7,11.59,23.62,3.99,49.65.39,65.6-19.28.64-.55-.48-1.54-1.14-.69-22.08,25.08-61.93,17.29-88.88,9.65-3.52-1-18.9-6.09-18.9-6.09C532.54,7.79,505.23-.98,476.23.09c-27.15.79-54.73,8.67-78.08,22.78-21.49,13.22-42.48,33.23-49.35,57.48-5.9,21.18-1.13,50.56,21.85,59.26,10.73,4.18,23.41,1.62,33.66-2.53,11.17-4.44,21.17-12.3,27.81-22.37,6.01-9.46,11.22-26.34-1.31-33.33-11.31-6.04-23.48,2.7-29.8,11.85-1.26,1.83,1.19,2.8,2.14.96,4.44-7.33,13.79-13.65,22.1-12.28,16.3,2.73,10.74,22.38,5.67,30.31-6.34,10.69-17.27,19.15-29.07,23.58-10.23,3.53-23.21,5.17-32.68-.84-10.68-6.96-14.47-20.28-13.96-32.61,2.47-37.89,38.19-72.46,68.65-87.39,24.86-11.62,52.66-14.56,79.74-10.73,18.16,2.15,35.31,9.52,52.49,14.73-38.32,23.74-64.23,62.17-85.23,101.3-15.7-1.8-30.01,5.99-39.16,18.48-.94.91.88,2.48,1.83,1.26,8.21-11.58,21.9-19.38,36.37-17.6-11.46,21.71-21.38,44.06-35.28,64.49-12.64,18.91-28.68,37.77-51.6,43.87-11.77,3.2-25.33,2.36-35.38-5.2-8.22-6.3-10.8-18.37-5.72-27.23,6.03-10.39,12.81-9.97,15.25-8.69,1.83,1.26-.09,5.55-1.33,6.15,4.93.08,9-3.55,10.02-9.4,1-4.61-1.71-8.66-7.26-8.45-12.35.72-21.23,16-21.74,28.33-.52,12.94,8.26,22.96,19.6,27.15ZM520.06,110.9c3.48-5.19,6.96-10.99,12.26-13.99,2.8-1.5,6.19-1.13,4.89,2.86-2.91,8.28-13.87,18.28-24.1,21.81,2.22-3.66,4.75-7.32,6.96-10.68Z"/></svg>