<?xml version="1.0" encoding="UTF-8"?>
<svg id="Capa_1" xmlns="http://www.w3.org/2000/svg" version="1.1" viewBox="0 0 2129.12 315.15">
  <!-- Generator: Adobe Illustrator 29.5.1, SVG Export Plug-In . SVG Version: 2.1.0 Build 141)  -->
  <defs>
    <style>
      .st0 {
        fill: #152133;
      }
    </style>
  </defs>
  <path class="st0" d="M320.96,170.02c-10.88,14.28-28.91,35.37-42.51,49.31-10.88,9.18-18.36,7.14-13.94-3.06,4.42-8.84,9.86-17.34,14.62-24.48,5.44-8.84,11.22-18.02,16.66-26.87,2.04-3.74,2.72-8.5-1.36-11.22-3.4-2.04-7.82-1.02-9.86,2.38-3.06,4.76-6.12,9.52-9.18,14.62,1.02-5.1,1.36-10.2-1.02-14.96-3.4-6.12-11.22-7.14-17.68-6.12-13.94,2.38-26.53,11.56-35.71,22.1-2.86,3.43-5.56,7.34-7.92,11.5-18.31,22.71-45.43,41.62-72.81,46.93-12.55,2.39-25.09,1.49-37.34-2.39-11.65-3.29-23-7.47-34.35-11.65,25.09-16.13,43.32-38.54,58.85-61.54,27.19-9.56,51.98-26.29,73.79-44.51,19.42-16.43,37.94-35.55,50.19-58.26,5.68-10.16,12.25-26.59,8.96-36.45-3.88-11.65-17.03-14.34-27.19-11.65-23.9,5.97-43.32,29.28-57.36,46.9-26.59,34.65-42.42,72.3-63.33,106.65-28.38,7.17-67.82,5.08-78.87-25.99-8.37-24.2,7.77-52.28,27.78-65.43,9.26-6.27,20.61-8.96,31.67-6.87,11.65,2.39,22.7,9.86,26.59,21.51,1.79,5.68,1.49,11.65-.6,17.33-2.99,8.07-11.35,13.44-16.43,10.75-2.09-1.2,0-5.97.9-6.27-3.88.6-8.66,3.88-9.56,9.56-.6,4.48,2.99,8.36,7.47,8.07,8.96-.3,15.54-10.16,18.82-17.92,2.39-5.68,3.58-13.14,2.39-19.12-2.69-11.95-12.55-21.21-23.3-25.09-11.35-4.48-24.8-3.59-35.85,1.2-21.51,9.56-39.43,31.67-41.23,55.57-.9,12.55,3.29,25.09,12.55,33.76,19.72,19.72,52.28,17.92,76.18,11.95-13.44,20.61-27.19,40.63-47.8,53.77-11.35-3.88-23-8.37-34.95-8.37-6.27,0-12.85,1.49-18.52,4.18-3.59,1.79-7.77,4.18-9.26,8.07-2.39,6.27,5.68,8.96,9.86,9.86,18.22,3.88,38.84-.3,54.07-9.26,11.35,5.68,22.41,12.55,34.36,16.73,12.25,4.48,25.09,5.38,37.94,2.99,12.55-2.69,24.2-8.37,34.95-15.24,15.08-10.13,26.62-19.72,37.72-32.25-2.62,6.12-4.36,12.54-4.68,18.74-.34,7.14,1.02,15.3,6.8,20.06,5.44,4.08,12.58,3.4,18.36,1.02,10.88-4.42,19.04-14.28,25.85-23.47-3.4,8.16-7.14,19.38,1.02,24.15,7.48,4.08,15.64-2.04,22.44-8.5,13.6-13.94,33.33-38.09,43.53-51.01,1.02-1.36-.68-2.72-1.7-1.7ZM203.28,34.17c7.77-9.56,17.33-19.72,28.98-24.8,10.46-4.48,25.69-2.39,26.29,11.05.6,13.14-6.87,25.69-12.85,36.15-6.87,11.05-14.94,21.51-23.9,30.77-17.93,19.12-38.84,35.55-61.54,48.99-9.56,5.68-20.02,11.05-30.77,15.24,26.59-39.14,44.81-81.86,73.79-117.41ZM22.54,226.86c-12.55,0-30.17-4.48-13.74-14.04,5.08-2.69,10.75-4.48,16.73-4.78,11.65-.3,23.3,3.59,34.06,8.37-11.35,6.27-24.2,9.86-37.04,10.46ZM258.39,199.27c-6.46,10.2-15.3,22.1-26.87,26.87-3.06,1.02-6.8,1.7-10.2,1.02-6.12-1.36-6.8-7.48-6.12-12.58,3.4-19.38,17.34-40.13,30.61-51.69,4.76-4.42,11.22-9.18,18.36-9.18,9.18,0,10.88,10.54,9.18,17.68-2.38,7.82-10.54,20.74-14.96,27.89Z"/>
  <path class="st0" d="M1572.97,131.96c12-3.6,23.39-9,34.19-15.89,20.39-12.59,41.68-33.89,41.38-59.67,0-23.39-20.39-40.48-40.48-45.58,6.6-4.2,14.09-6.9,21.89-6.9,1.2-1.2-3.3-1.2-4.8-1.2-7.5,0-14.99,3.3-21.29,7.2-22.49-4.5-46.78-.3-67.77,7.2-24.59,9.3-46.78,24.29-65.37,42.58-15.29,15.89-30.29,41.98-22.49,63.57,3.9,10.8,14.99,16.19,26.09,15.89,12.29-.6,23.69-6.6,32.09-15.29,6.9-6.9,14.69-17.69,12.89-28.19-.9-5.7-5.1-9.9-11.1-10.49-5.4-.3-10.49,2.1-14.69,5.1-1.5,1.5-.3,2.1,1.5.9,4.5-2.7,10.19-5.1,15.59-3.6,8.4,2.7,8.1,13.49,5.1,20.09-6.3,14.09-20.39,26.09-36.29,27.59-10.5,1.2-22.49-3.6-23.99-15.59-1.2-11.69,2.4-23.99,7.8-34.48,11.7-22.79,30.58-41.68,52.78-54.58,25.19-14.69,54.57-23.99,83.66-17.69-30.59,23.09-48.28,58.17-67.77,90.26-13.79,23.39-25.49,47.98-38.68,71.67-11.7,20.99-26.09,41.98-49.18,50.68-11.4,4.5-25.49,5.1-35.68-2.1-8.4-6.3-10.8-16.49-8.1-25.79,3-10.5,12.6-13.19,14.99-8.4.6,1.2,0,5.1-1.5,5.4,5.1-.3,8.4-5.7,9-9.9.6-4.8-3-8.4-7.8-7.5-5.4.9-14.39,8.7-17.09,21.89-1.8,9.9,1.2,20.09,9.6,26.39,10.2,7.8,24.29,8.1,36.29,4.8,23.39-6,41.08-23.99,54.87-42.88,15.59-21.59,29.39-44.98,41.68-68.97,18.89-35.68,34.48-75.87,63.87-104.65,11.69,3.3,23.39,10.5,28.49,21.59,11.99,30.29-8.09,58.77-29.69,76.47-9.3,7.5-20.09,13.79-31.79,17.69-8.1,3-17.09,5.1-25.79,2.4-6-2.4-5.4,1.2,1.2,2.7,9,1.8,17.99,0,26.39-2.7Z"/>
  <path class="st0" d="M1627.06,130.85c8.52-1.02,17.72-2.73,25.91-5.8,4.09-1.7,17.04-7.5,11.93-13.64-1.02-1.36-3.07-2.05-4.77-1.7-2.39.68-2.73,2.39-4.09,4.09-7.5,8.86-19.09,12.61-29.32,15.34-1.02,0-.68,1.7.34,1.7Z"/>
  <path class="st0" d="M1873.98,125.73c3.75,1.7,8.18,0,10.23-4.09,2.05-4.43,1.02-8.86-2.73-10.91-3.41-1.7-8.18.34-9.89,4.09-2.38,4.09-1.02,9.2,2.39,10.91Z"/>
  <path class="st0" d="M2127.1,169.37c-7.84,10.23-23.52,29.32-33.07,39.89-6.13,7.5-13.98,13.3-22.84,16.7,3.75-2.05,7.16-4.77,9.88-7.5,18.41-19.43,6.48-46.36-4.77-66.48,3.41-4.09,7.5-8.52,9.2-13.64,1.71-6.14-4.43-8.18-8.86-4.77-5.45,4.77-5.79,13.3-5.11,20.8-4.05,4.73-9.1,11.45-12.18,15.22-.06.04-.12.06-.18.12l-3.75,4.77c-3.75,4.43-7.16,8.86-10.91,13.3-8.18,9.2-17.05,18.75-26.59,26.59-8.18,6.48-18.75,13.98-29.66,12.27-15-3.75-7.16-22.16-3.41-31.7,6.14.34,13.98-.34,19.43-1.7,18.75-5.11,28.63-14.32,32.73-19.77,4.43-6.14,5.45-13.98,1.02-18.75-2.73-3.07-6.48-4.77-10.22-5.45-1.71-.34-10.23-1.7-23.18,4.77-12.61,6.48-23.52,16.7-30.68,28.98-1.52,2.61-2.83,5.4-3.92,8.28-2.54,2.96-5.03,5.82-7.34,8.42-4.09,4.09-30.34,35.79-35.11,23.86-2.04-4.77,21.48-37.16,28.3-57.27,1.36-4.77,2.05-11.25-1.36-14.32-10.91-9.55-27.95,5.45-34.43,11.59-4.77,4.77-9.21,10.57-13.3,15.34.34-1.02,4.77-10.23,7.5-16.02,1.36-2.73,3.07-6.14,3.07-7.5,0-4.77-5.11-7.84-9.55-5.8-2.05,1.02-3.75,3.41-5.11,6.14-3.35,5.36-6.37,9.73-9.39,13.77-.08.07-.16.11-.24.21-13.3,16.7-27.95,34.77-42.61,49.77-2.73,2.73-5.11,4.09-8.87,5.45-7.84,1.7-7.5-3.75-5.11-8.52,8.52-17.39,19.77-35.11,28.97-51.82,1.71-2.73,4.09-7.5,4.09-9.2,0-4.77-5.11-7.84-9.55-5.8-2.05,1.02-3.75,3.41-5.11,6.14-3.39,5.43-6.44,9.84-9.49,13.91-.04.03-.09.03-.13.07-6.82,9.2-14.32,17.73-21.48,26.25-9.55,10.91-19.77,22.16-32.73,28.64-6.14,2.73-13.64,5.11-20.12,2.39-6.48-3.07-6.48-10.57-5.11-16.7,2.39-10.23,7.16-20.45,12.96-29.32,7.16-11.59,17.39-25.23,31.02-28.98,5.45-1.36,13.98-.68,15,6.48,1.02,5.8-7.84,16.02-13.64,12.27-1.71-1.02-.68-4.09,0-4.77-3.07.34-6.82,4.09-7.16,7.5-.34,3.41,2.05,6.14,5.8,6.14,4.43,0,8.18-3.75,10.91-6.82,5.11-6.48,5.45-10.23,5.8-11.93,2.04-13.98-18.41-12.95-26.59-10.57-18.75,5.45-33.07,19.77-40.91,35.45-.8,1.51-1.53,3.11-2.18,4.76-8.4,10.12-17.09,20.1-25.78,28.99-3.75,3.75-12.95,9.2-16.02,4.43-3.07-4.43,21.48-38.18,28.3-57.95,4.09-15.34-8.18-21.14-20.46-14.32-6.14,3.41-10.57,7.16-15.34,11.59-4.77,4.77-9.55,10.57-13.64,15.68,5.11-12.61,8.18-21.14,4.77-26.59-4.77-7.16-15-1.36-20.45,4.43-5.79,6.14-7.84,8.86-11.25,12.95-.44.57-.68,1.03-.83,1.43-12.99,16.3-27.22,33.77-41.47,48.34-2.73,2.73-5.11,4.09-8.87,5.45-7.84,1.7-7.5-3.75-5.11-8.52,8.52-17.39,19.77-35.11,28.97-51.82,1.71-2.73,4.09-7.5,4.09-9.2,0-4.77-5.11-7.84-9.55-5.8-2.05,1.02-3.75,3.41-5.11,6.14-3.38,5.4-6.42,9.8-9.46,13.86-.06.04-.12.06-.17.12-11.93,15.34-32.73,42.61-50.11,54.88-3.07,2.05-7.84,4.77-11.25,3.41-3.41-1.7,1.02-10.91,2.73-13.64,7.84-13.64,16.71-27.27,26.25-39.89,2.05-2.73,4.09-5.8,6.48-8.52,1.71-2.05,2.05-5.11.68-7.5-1.37-2.05-3.75-3.41-6.14-3.41-2.73.34-5.45,1.7-7.84,2.73-6.82,2.39-15,3.41-22.16,1.02,2.73-5.11,5.8-11.59,3.75-16.7-1.37-3.07-4.77-2.39-6.82-.34-2.04,2.05-3.41,5.45-3.75,7.5-.68,4.43,0,8.18,3.41,10.91-2.39,3.75-4.43,6.82-6.48,9.55-1.71,2.39.34,3.41,1.7,1.7,1.71-2.39,4.43-5.8,6.82-10.23,5.8,3.41,12.27,3.75,18.75,5.11-7.16,9.2-13.64,19.43-18.75,30-3.75,7.5-13.64,32.04-.68,35.79,5.45,2.05,11.59-2.05,16.02-5.45,16.57-13.19,36.48-39.78,48.78-54.85.02-.01.03-.02.05-.04-7.5,14.66-15.68,30.34-21.48,45-1.36,4.43-1.7,10.23,2.05,13.64,4.77,3.75,11.59,1.7,15.34-.68,9.88-6.48,20.45-20.45,29.66-30.68,7.5-8.86,15.34-18.41,22.5-27.61.21-.21.28-.46.29-.72,3.65-4.28,5.39-6.62,8.94-9.85,2.05-2.05,5.8-5.45,9.2-5.45,6.82,0-7.84,21.82-8.52,22.84-8.86,13.64-17.38,27.27-25.91,40.91-1.02,2.05-2.39,3.41-2.39,5.8,0,2.73,1.7,5.11,4.09,6.48,4.43,2.39,8.18-.34,10.57-4.09,7.16-11.25,13.98-21.48,20.46-33.07,6.82-9.89,14.32-20.11,22.84-28.29,5.45-5.45,14.66-13.98,21.82-12.27,2.73.68,4.09,2.39,3.07,4.77-9.54,21.14-29.66,45.68-30,63.75,0,4.09,2.39,7.84,6.14,9.55,4.77,1.7,10.57,0,15-3.07,9.54-6.48,19.43-19.77,28.29-29.66.65-.77,1.32-1.57,1.98-2.36-2.46,9.75-2.02,20.57,3.82,28.61,7.5,10.57,22.5,7.84,32.39,2.39,11.25-5.8,20.79-15.34,29.31-24.55,8.76-9.77,18.18-21.2,26.3-31.34.01-.01.02-.01.03-.03-7.5,14.66-15.68,30.34-21.48,45-1.36,4.43-1.7,10.23,2.05,13.64,4.77,3.75,11.59,1.7,15.34-.68,9.88-6.48,20.45-20.45,29.66-30.68,7.4-8.75,15.14-18.17,22.22-27.26,0,0,.01,0,.02-.01l-1.02,2.05c-3.41,6.82-7.16,13.98-10.57,20.8-24.54,47.39-31.15,63.24-56.37,109.26-1.02,2.05-2.39,4.09-2.05,6.48.68,5.45,7.84,6.48,10.23,2.05,1.37-2.05,2.39-4.09,3.75-6.14,31.37-54.89,30.81-58.47,59.78-111.65,6.82-9.89,14.32-20.11,22.84-28.29,5.45-5.45,14.66-13.98,21.82-12.27,2.73.68,4.09,2.39,3.07,4.77-3.75,12.61-46.02,62.73-23.86,72.95,6.48,2.39,13.64-1.7,18.41-5.8,10.01-8.19,19.04-18.13,27.52-28.31-2.77,11.47-1.45,23.28,6.57,30.36,8.86,7.84,21.48,4.09,30.68-1.02,23.07-13.23,39.04-34.89,55.32-55.26.11-.1.21-.17.33-.31,4.09-5.11,8.18-10.23,10.91-13.98,1.71,21.48,8.86,46.02-7.16,63.75-4.09,4.09-10.22,7.84-16.36,7.16-3.41-.68-6.82-2.73-6.82-7.5,0-6.82,7.84-11.59,11.93-9.21,1.71,1.02.68,4.43,0,5.11,3.07-1.02,6.48-3.75,6.82-8.52.34-3.75-2.05-7.16-6.48-6.14-8.18,1.7-15,11.59-14.32,19.43,1.02,13.64,21.14,10.57,26.59,9.2,8.52-2.05,16.36-7.16,22.84-12.95,13.3-12.27,29.66-34.43,39.89-46.7,1.02-1.36-.68-2.73-1.71-1.7ZM1556.07,157.78c-3.41-2.73-3.41-7.16-2.05-10.57.34-1.02,3.41-6.48,5.45-4.77,3.41,3.41-1.71,12.61-3.41,15.34ZM2007.36,160.5c4.77-4.43,11.25-9.2,18.07-8.86,2.39,0,4.43,1.02,5.45,2.05,6.48,6.82-11.59,36.48-34.43,38.18-3.07.34-6.82.68-10.57.68,5.11-11.93,12.96-22.5,21.48-32.05ZM2075.96,140.05c.68-2.39,3.07-6.48,6.14-5.8,5.45,1.36-6.48,15-6.82,15.68-.68-3.07-.34-6.82.68-9.89Z"/>
  <path class="st0" d="M886.05,169.71c-10.91,14.32-28.98,35.45-42.61,49.43-10.91,9.2-18.41,7.16-13.98-3.07,4.43-8.86,9.89-17.39,14.66-24.55,5.45-8.86,11.25-18.07,16.7-26.93,2.05-3.75,2.73-8.52-1.36-11.25-3.41-2.05-7.84-1.02-9.89,2.39-3.07,4.77-6.14,9.55-9.21,14.66,1.02-5.11,1.36-10.23-1.02-15-3.41-6.14-11.25-7.16-17.73-6.14-13.98,2.39-26.59,11.59-35.79,22.16-4.91,5.89-9.36,13.15-12.39,20.78-5.84,6.87-11.94,13.83-17.62,20.13-16.36,16.36-20.45,10.57-16.36,0,12.27-31.02,30-60.34,45.68-89.66,20.11-36.48,25.93-45.69,48.43-80.81,3.07-4.77-2.05-10.91-7.16-7.84-2.05,1.02-3.07,3.41-4.43,5.11-33.41,49.43-47.4,73.31-74.33,126.15.34-3.41,0-6.82-1.7-9.89-3.41-6.14-11.25-7.16-17.73-6.14-13.98,2.39-27.27,12.95-36.48,23.52-4.85,5.82-8.93,12.53-11.67,19.68-7.89,9.44-16.01,18.71-24.13,27.02-3.75,3.75-12.95,9.2-16.02,4.43-3.07-4.43,21.48-38.18,28.29-57.95,4.09-15.34-8.18-21.14-20.45-14.32-6.14,3.41-10.57,7.16-15.34,11.59-4.77,4.77-9.55,10.57-13.64,15.68,5.11-12.61,8.18-21.14,4.77-26.59-4.77-7.16-15-1.36-20.45,4.43-5.7,6.04-7.78,8.78-11.1,12.77-.07.06-.15.11-.21.19-5.8,7.84-17.05,17.39-26.59,20.11,2.05-5.8,3.75-12.27,1.36-18.07-2.05-4.43-6.48-5.11-10.57-2.73-5.11,2.73-9.55,9.55-7.84,15.68.68,2.73,2.73,4.77,5.11,6.14-7.16,11.25-20.11,32.04-31.7,37.84-5.45,2.39-12.95,2.73-16.7-3.07-3.75-5.8-1.36-13.64,1.02-19.77,5.11-12.95,12.61-26.59,22.16-37.16,7.84-8.52,25.57-21.82,35.79-12.96,3.75,3.75,4.09,8.18,3.41,12.61,0,1.02,1.36,1.7,1.7.68,2.05-6.14-.34-12.61-3.07-15.34-4.77-4.77-11.93-5.45-18.07-4.77-21.14,2.05-40.23,17.73-48.75,37.16-5.45,11.93-7.5,31.02,2.39,41.25,9.55,9.89,25.91,4.09,35.45-2.39,11.59-8.18,21.48-19.43,27.27-32.38,10.8-2.02,22.25-12.4,29.1-20.87.09-.09.19-.16.27-.27,4.09-4.77,5.8-7.16,9.55-10.57,2.05-2.05,5.8-5.45,9.2-5.45,6.82,0-7.84,21.82-8.52,22.84-8.86,13.64-17.39,27.27-25.91,40.91-1.02,2.05-2.39,3.41-2.39,5.8,0,2.73,1.7,5.11,4.09,6.48,4.43,2.39,8.18-.34,10.57-4.09,7.16-11.25,13.98-21.48,20.45-33.07,6.82-9.89,14.32-20.11,22.84-28.29,5.45-5.45,14.66-13.98,21.82-12.27,2.73.68,4.09,2.39,3.07,4.77-9.55,21.14-29.66,45.68-30,63.75,0,4.09,2.39,7.84,6.14,9.55,4.77,1.7,10.57,0,15-3.07,9.55-6.48,19.43-19.77,28.29-29.66.11-.13.22-.26.33-.39-.91,3.49-1.51,7.04-1.69,10.62-.34,7.16,1.02,15.34,6.82,20.11,5.45,4.09,12.61,3.41,18.41,1.02,11.59-4.77,19.09-14.32,26.59-24.2-2.05,8.18-5.11,19.09,1.7,25.23,7.16,4.77,18.41-7.16,23.86-12.95,5.47-5.89,11.57-12.88,17.51-19.9-1,3.57-1.64,7.17-1.82,10.7-.34,7.16,1.02,15.34,6.82,20.11,5.45,4.09,12.61,3.41,18.41,1.02,10.91-4.43,19.09-14.32,25.91-23.52-3.41,8.18-7.16,19.43,1.02,24.2,7.5,4.09,15.68-2.05,22.5-8.52,13.64-13.98,33.41-38.18,43.64-51.14,1.02-1.36-.68-2.73-1.7-1.7ZM554.63,189.14c-1.71-1.02-3.07-2.39-4.09-4.77-1.7-4.77,1.7-11.25,6.48-12.95,8.86-3.41-1.7,16.7-2.39,17.73ZM729.91,200.05c-6.48,10.23-15,21.14-26.59,25.91-3.07,1.02-6.82,1.7-10.23,1.02-6.14-1.36-6.82-7.5-6.14-12.61,3.41-19.77,27.95-61.02,48.75-61.02,12.27,0,10.23,15,6.82,21.82l-12.61,24.89ZM823.32,199.03c-6.48,10.23-15.34,22.16-26.93,26.93-3.07,1.02-6.82,1.7-10.23,1.02-6.14-1.36-6.82-7.5-6.14-12.61,3.41-19.43,17.39-40.23,30.68-51.82,4.77-4.43,11.25-9.21,18.41-9.21,9.21,0,10.91,10.57,9.21,17.73-2.39,7.84-10.57,20.79-15,27.95Z"/>
  <path class="st0" d="M519.14,121.62c-4.52,10.55-9.34,22.3-19.89,28.33-1.51,1.51,0,2.41,1.81,1.2,11.15-7.53,17.48-19.29,24.11-30.74,3.31-.9,6.33-2.41,9.64-4.52,4.52-3.01,9.04-7.23,12.35-11.75,2.11-2.71,6.93-9.64,2.71-12.66-4.82-3.01-12.05,2.71-15.67,6.33-6.33,6.33-10.55,13.86-14.16,21.7-6.63.9-13.26.6-19.89-.3,19.59-35.32,37.17-75.87,72.26-98.68,13.27,4,26.26,8.67,39.95,10.67,23.15,3.52,48.53-.41,63.79-19.89.62-.55-.49-1.49-1.13-.66-21.18,24.86-60.24,17.88-86.7,10.84-3.46-.92-18.57-5.65-18.57-5.65-26.52-9.04-53.34-17.18-81.66-15.67-26.52,1.21-53.34,9.34-75.94,23.5-20.79,13.26-40.98,33.15-47.31,56.95-5.42,20.79-.3,49.42,22.3,57.56,10.55,3.92,22.9,1.2,32.85-3.01,10.85-4.52,20.49-12.35,26.82-22.3,5.72-9.34,10.55-25.92-1.81-32.54-11.15-5.73-22.9,3.01-28.93,12.05-1.21,1.81,1.21,2.71,2.11.9,4.22-7.23,13.26-13.56,21.4-12.36,15.97,2.41,10.85,21.7,6.03,29.53-6.03,10.55-16.57,18.98-28.02,23.5-9.95,3.62-22.6,5.42-31.94-.3-10.55-6.63-14.46-19.59-14.16-31.64,1.81-37.07,36.16-71.42,65.69-86.49,24.11-11.75,51.23-15.07,77.75-11.75,17.78,1.81,34.65,8.74,51.53,13.56-37.07,23.81-61.77,61.78-81.66,100.35-15.37-1.51-29.23,6.33-37.97,18.68-.9.9.9,2.41,1.81,1.2,7.84-11.45,21.09-19.29,35.26-17.78-10.85,21.39-20.19,43.39-33.45,63.58-12.05,18.68-27.42,37.37-49.72,43.69-11.45,3.32-24.71,2.71-34.65-4.52-8.14-6.03-10.85-17.78-6.03-26.52,5.72-10.25,12.35-9.94,14.77-8.74,1.81,1.21,0,5.42-1.2,6.03,4.82,0,8.74-3.62,9.64-9.34.9-4.52-1.81-8.44-7.23-8.14-12.05.9-20.49,15.97-20.79,28.02-.3,12.66,8.44,22.3,19.59,26.22,11.75,3.92,25.01,2.11,36.16-2.71,22.6-9.34,38.87-28.63,52.13-46.11,14.16-18.68,25.01-39.48,36.16-60.27,6.33,1.21,13.26,1.51,19.89.6ZM532.7,107.76c3.32-5.12,6.63-10.85,11.75-13.86,2.71-1.51,6.03-1.21,4.82,2.71-2.71,8.14-13.26,18.08-23.2,21.7,2.11-3.62,4.52-7.23,6.63-10.55Z"/>
  <path class="st0" d="M1126.91,187.34l-2.98,3.66c-2.97,3.4-5.67,6.8-8.65,10.19-6.47,7.05-13.48,14.35-21,20.33-6.44,4.93-14.75,10.62-23.2,9.16-11.61-3.1-5.28-17.31-2.25-24.68,4.76.34,10.87-.09,15.12-1.08,14.63-3.74,22.43-10.76,25.68-14.95,3.52-4.71,4.42-10.79,1.03-14.56-2.08-2.42-4.97-3.79-7.88-4.37-1.32-.29-7.93-1.45-18.07,3.41-9.88,4.87-18.49,12.68-24.21,22.13-1.26,2.08-2.35,4.32-3.25,6.62-4.75,5.42-9.73,10.91-14.34,15.88-12.92,12.51-16.03,7.95-12.72-.21,9.93-23.95,24.08-46.51,36.63-69.09,16.09-28.09,11.9-20.64,29.83-47.64,2.45-3.67-1.45-8.5-5.46-6.18-1.6.77-2.43,2.61-3.51,3.92-26.59,37.99-28.94,41.82-50.53,82.54.31-2.64.09-5.3-1.2-7.7-2.57-4.81-8.65-5.71-13.7-4.99-5.26.81-10.42,3.11-15.18,6.19l-.15-.08-27.36,20.23c-15.64,9.85-33.64,20.28-51.47,20.74-9.17.28-19.65-3.52-25.68-10.81-4.91-6.05-4.69-15.33.57-20.92,6.23-6.55,11.11-5.05,12.68-3.69,1.12,1.24-1.04,4.04-2.05,4.26,3.59.92,7.21-1.03,8.97-5.12,1.54-3.2.27-6.64-3.84-7.45-9.16-1.63-18.33,7.99-20.86,16.92-2.64,9.38,2.03,18.24,9.59,23.29,8.01,5.17,18.25,6.35,27.48,4.89,18.64-2.65,31.21-12.29,47.89-22.48l10.74-8.13c-6.75,7.84-11.68,17.82-12.37,28.14-.36,5.56.6,11.93,5.04,15.72,4.19,3.25,9.76,2.81,14.29,1.03,9.07-3.56,15.02-10.88,20.97-18.47-1.69,6.33-4.22,14.77,1,19.62,5.5,3.8,14.4-5.33,18.71-9.76,4.53-4.72,9.61-10.36,14.51-15.99-2.31,8.89-1.45,18.11,4.71,23.72,6.79,6.2,16.64,3.45,23.85-.41,18.18-10.04,30.91-26.79,43.88-42.47.81-1.05-.49-2.13-1.3-1.35ZM1022.94,209.23c-5.16,7.86-11.92,16.23-20.99,19.8-2.4.76-5.32,1.24-7.96.67-4.75-1.14-5.2-5.91-4.61-9.88,2.9-15.32,22.5-47.06,38.65-46.8,9.54.16,7.76,11.79,5.02,17.04l-10.12,19.18ZM1086.76,179.53c3.76-3.38,8.86-7.01,14.15-6.66,1.85.03,3.43.85,4.21,1.66,4.95,5.38-9.47,28.2-27.24,29.23-2.39.23-5.31.44-8.22.4,4.12-9.21,10.35-17.32,17.1-24.63Z"/>
  <path class="st0" d="M1365.12,171.26c-9.31-2.09-19.32.33-27.48,4.89-14.26,7.67-22.53,18.64-32.28,31.31-4.32,5.03-8.68,9.98-12.04,13.58-4.69,5.54-10.63,9.78-17.3,12.23,2.83-1.49,5.42-3.49,7.49-5.49,14.02-14.32,5.42-34.63-2.76-49.83,2.6-3.02,5.72-6.29,7.06-10.1,1.35-4.57-3.22-6.18-6.58-3.68-4.14,3.51-4.5,9.88-4.08,15.51-3.1,3.5-6.99,8.51-9.33,11.28-.02.02-.04.03-.06.05-4.43,5.8-12.97,12.81-20.15,14.73,1.6-4.31,2.96-9.14,1.24-13.51-1.48-3.34-4.79-3.91-7.88-2.17-3.86,1.98-7.26,7.03-6.06,11.64.48,2.05,1.98,3.61,3.75,4.66-5.5,8.33-15.45,23.74-24.2,27.94-4.11,1.72-9.73,1.88-12.47-2.5-2.74-4.38-.85-10.23,1.01-14.79,3.99-9.64,9.77-19.75,17.04-27.55,5.97-6.28,19.41-16.02,26.96-9.26,2.76,2.85,2.96,6.18,2.4,9.49-.01.77,1,1.29,1.27.53,1.61-4.57-.1-9.45-2.11-11.52-3.51-3.63-8.87-4.23-13.47-3.79-15.85,1.27-30.33,12.78-36.95,27.22-.49,1.03-.95,2.15-1.36,3.31-7.61,9.46-15.33,18.06-25.64,24.08-3.35,1.73-9.78,4.69-12.01.57-1.98-3.61,6.76-22.87,11.51-32.49,6.23-6.63,12.78-11.61,18.07-17.36,7.28-8.31,14.32-16.87,21.1-25.95,6.53-8.83,10.87-14.39,15.63-24.53,2.38-4.81,4.24-9.63,4.84-14.98.59-4.59.43-10.97-4.38-13.09-4.82-1.61-10.74,1.36-14.61,3.85-7.96,5.24-14.06,12.38-19.53,20.01-4.38,6.12-8.11,12.69-11.36,19.48-12.4,25.93-12.17,29.32-23.97,63.32-2.17,7.62-5.45,20.85-1.18,25.25,3.77,3.89,9.14,2.96,13.52.73,10.67-5.89,18.92-14.75,26.68-24.31-1.83,8.03-1.39,17.29,3.98,23.02,7.03,7.52,19.35,3.38,26.57-1.35,8.78-5.98,16.32-14.29,20.81-23.91,8.16-1.39,16.93-9.11,22.15-15.4.03-.03.05-.04.08-.07,3.13-3.78,6.25-7.56,8.34-10.33,1.01,16.1,6.07,34.56-6.14,47.64-3.11,3.01-7.75,5.75-12.34,5.16-2.54-.55-5.07-2.13-5.01-5.7.08-5.1,6.01-8.58,9.05-6.75,1.26.79.46,3.33-.06,3.83,2.31-.73,4.9-2.73,5.21-6.3.3-2.8-1.44-5.38-4.77-4.67-6.15,1.18-11.37,8.49-10.96,14.37.6,10.22,15.69,8.17,19.8,7.22,6.41-1.43,12.34-5.16,17.26-9.42,10.1-9.03,22.63-25.41,30.43-34.48.02-.02.02-.05.04-.07,7.38-7.58,15.54-14.11,24.71-17.75,8.51-3.43,19.65-3.48,27.83,1.29,6.7,3.98,9.69,12.77,6.68,19.84-3.59,8.29-8.69,8.58-10.63,7.84-1.48-.78-.42-4.15.45-4.71-3.69.38-6.41,3.45-6.66,7.9-.34,3.53,2.04,6.32,6.17,5.67,9.16-1.63,14.45-13.83,13.74-23.08-.75-9.72-8.2-16.42-17.04-18.55ZM1214.5,110.69c2.34-2.52,8.83-9.05,12.33-4.65,2.5,3.1,1.65,8.2,1.08,11.76-2.22,10.69-9.01,20.28-14.77,29.12-12.55,18.18-39.23,43.58-40.53,45.09,12.8-34.34,14.77-46.53,41.89-81.32ZM1239.69,205.1c-1.26-.79-2.27-1.82-3-3.62-1.22-3.59,1.41-8.4,5.01-9.62,6.68-2.44-1.48,12.49-2,13.24ZM1280.63,169.01c.54-1.78,2.38-4.81,4.66-4.26,4.07,1.09-5.03,11.15-5.3,11.66-.47-2.31-.17-5.11.63-7.39Z"/>
</svg>